<svg width="14" height="17" viewBox="0 0 14 17" fill="none" xmlns="http://www.w3.org/2000/svg">
    <path fill-rule="evenodd" clip-rule="evenodd"
          fill="#1C1B2D"  d="M1 5.87497C1 5.25366 1.50367 4.75 2.12497 4.75H5.92187L9.4375 8.26562V14.875C9.4375 15.4963 8.93383 16 8.31253 16H2.12497C1.50367 16 1 15.4963 1 14.875V5.87497Z"
          stroke="#c49840" stroke-linecap="round" stroke-linejoin="round"/>
    <path fill-rule="evenodd" clip-rule="evenodd"
          d="M4 2.12497C4 1.50367 4.50367 1 5.12497 1H9.25L13 4.75V11.875C13 12.4963 12.4963 13 11.875 13H5.12497C4.50367 13 4 12.4963 4 11.875V2.12497Z"
          fill="#1C1B2D" stroke="#c49840" stroke-linecap="round" stroke-linejoin="round"/>
    <path fill-rule="evenodd" clip-rule="evenodd" d="M9.25 1L13 4.75H9.25V1Z" stroke="#c49840" stroke-linecap="round"
          stroke-linejoin="round"/>
</svg>
